<svg version="1.1" id="Layer_1" xmlns="http://www.w3.org/2000/svg" x="0" y="0" width="985.108" height="310.084" viewBox="0 0 985.108 310.084" xml:space="preserve"><path d="M339.506 29.775L314.851 0c-24.194 23.258-51.181 44.659-80.957 60.941l13.958 24.662c32.101-14.423 68.392-37.682 91.654-55.828M271.345 310.084h30.705l57.694-59.083-24.191-21.864-48.391 53.035c-13.491-14.889-33.496-36.284-50.248-53.035l-23.261 22.795c20.47 19.54 40.943 40.479 57.692 58.152M239.241 179.7c13.958 0 23.729-9.771 23.729-23.264 0-13.954-9.771-23.723-23.729-23.723-13.028 0-23.262 10.234-23.262 23.723 0 13.958 9.304 23.264 23.262 23.264M333.691 179.7c13.958 0 23.729-9.771 23.729-23.264 0-13.954-9.771-23.723-23.729-23.723-13.028 0-23.262 10.234-23.262 23.723 0 13.958 9.304 23.264 23.262 23.264" fill="#006fba"/><path d="M54.248 161.421c-7.337-4.439-16.409-7.525-24.711-11.003-6.951-2.896-10.232-7.143-10.232-12.548 0-9.265 9.46-11.196 15.444-11.196 8.303 0 17.375 3.091 23.939 6.95l6.179-16.602c-7.143-2.893-19.113-5.981-29.926-5.981-16.022 0-33.784 8.686-33.784 27.604 0 7.527 2.317 16.02 11.97 23.163 6.178 4.632 18.147 8.495 25.87 11.968 7.722 3.474 10.425 8.3 10.425 12.547 0 10.232-9.073 12.933-17.376 12.933-10.232 0-20.076-3.281-26.64-6.177L0 207.363c7.723 4.247 20.658 7.722 32.818 7.722 15.252 0 35.523-8.105 35.523-30.305 0-8.301-4.245-17.567-14.093-23.359M124.422 162.966l40.734-43.628-12.741-11.001-44.596 49.031v-44.014H89.672v99.609h18.147v-44.208c15.252 19.11 31.083 36.869 46.913 49.807l11.97-12.938c-15.252-12.545-29.153-27.02-42.28-42.658M437.534 170.88h45.945v-15.635h-45.945V128.99h47.297v-15.636h-65.444v99.609h66.215v-15.639h-48.068zM577.169 165.089c0 2.316 0 5.791-.191 10.038-.965 16.987-10.811 23.935-24.712 23.935-14.284 0-23.358-6.947-24.519-22.776-.387-5.021-.387-7.915-.387-10.618v-52.314h-18.146v52.894c0 3.086 0 7.914.193 12.741 1.158 24.708 17.182 36.097 42.857 36.097 25.098 0 41.701-12.16 42.858-38.22.192-5.021.192-9.653.192-10.813v-52.699h-18.147v51.735zM685.364 140.187c0-16.407-10.427-29.147-33.398-29.147-17.184 0-27.8 4.825-35.717 9.265l7.339 14.861c5.017-3.474 12.547-8.298 23.55-8.298 9.847 0 18.727 5.404 18.727 15.057 0 6.564-2.123 14.669-12.936 25.866-10.616 10.813-22.007 20.464-37.838 30.887l2.896 14.286h69.692V198.1h-46.333c16.025-11.006 44.018-32.048 44.018-57.913M751.943 199.449c-14.673 0-26.447-14.09-26.447-36.291 0-17.758 9.651-36.096 26.447-36.096 14.673 0 26.449 14.092 26.449 36.096.001 17.952-9.459 36.291-26.449 36.291m0-88.408c-23.358 0-44.787 22.583-44.787 52.117 0 32.045 16.794 52.122 44.979 52.122 26.451 0 44.599-22.006 44.599-52.122-.001-31.849-16.605-52.117-44.791-52.117M866.489 115.671l-15.252-4.826-37.064 19.305 7.335 13.512 26.835-14.092v68.142h-25.292v15.251h68.728v-15.251h-25.29zM946.688 200.609c-11.774 0-22.008-7.337-23.938-25.097 4.44-7.142 13.707-12.933 24.323-12.933 10.427 0 20.08 5.984 20.08 18.724.001 9.844-8.301 19.306-20.465 19.306m5.408-52.703c-13.32 0-23.746 4.828-29.537 11.97 2.509-18.917 13.899-33.971 36.873-33.971 4.247 0 8.88.77 11.969 1.35l2.509-14.671c-4.631-.966-11.003-1.544-15.252-1.544-33.977 0-54.054 26.058-54.054 58.104 0 26.059 13.128 46.136 40.929 46.136 26.836 0 39.576-18.529 39.576-34.556-.001-19.687-12.935-32.818-33.013-32.818" fill="#e52823"/><path d="M54.248 161.421c-7.337-4.439-16.409-7.525-24.711-11.003-6.951-2.896-10.232-7.143-10.232-12.548 0-9.265 9.46-11.196 15.444-11.196 8.303 0 17.375 3.091 23.939 6.95l6.179-16.602c-7.143-2.893-19.113-5.981-29.926-5.981-16.022 0-33.784 8.686-33.784 27.604 0 7.527 2.317 16.02 11.97 23.163 6.178 4.632 18.147 8.495 25.87 11.968 7.722 3.474 10.425 8.3 10.425 12.547 0 10.232-9.073 12.933-17.376 12.933-10.232 0-20.076-3.281-26.64-6.177L0 207.363c7.723 4.247 20.658 7.722 32.818 7.722 15.252 0 35.523-8.105 35.523-30.305 0-8.301-4.245-17.567-14.093-23.359M124.422 162.966l40.734-43.628-12.741-11.001-44.596 49.031v-44.014H89.672v99.609h18.147v-44.208c15.252 19.11 31.083 36.869 46.913 49.807l11.97-12.938c-15.252-12.545-29.153-27.02-42.28-42.658M437.534 170.88h45.945v-15.635h-45.945V128.99h47.297v-15.636h-65.444v99.609h66.215v-15.639h-48.068zM577.169 165.089c0 2.316 0 5.791-.191 10.038-.965 16.987-10.811 23.935-24.712 23.935-14.284 0-23.358-6.947-24.519-22.776-.387-5.021-.387-7.915-.387-10.618v-52.314h-18.146v52.894c0 3.086 0 7.914.193 12.741 1.158 24.708 17.182 36.097 42.857 36.097 25.098 0 41.701-12.16 42.858-38.22.192-5.021.192-9.653.192-10.813v-52.699h-18.147v51.735zM685.364 140.187c0-16.407-10.427-29.147-33.398-29.147-17.184 0-27.8 4.825-35.717 9.265l7.339 14.861c5.017-3.474 12.547-8.298 23.55-8.298 9.847 0 18.727 5.404 18.727 15.057 0 6.564-2.123 14.669-12.936 25.866-10.616 10.813-22.007 20.464-37.838 30.887l2.896 14.286h69.692V198.1h-46.333c16.025-11.006 44.018-32.048 44.018-57.913M751.943 199.449c-14.673 0-26.447-14.09-26.447-36.291 0-17.758 9.651-36.096 26.447-36.096 14.673 0 26.449 14.092 26.449 36.096.001 17.952-9.459 36.291-26.449 36.291m0-88.408c-23.358 0-44.787 22.583-44.787 52.117 0 32.045 16.794 52.122 44.979 52.122 26.451 0 44.599-22.006 44.599-52.122-.001-31.849-16.605-52.117-44.791-52.117M866.489 115.671l-15.252-4.826-37.064 19.305 7.335 13.512 26.835-14.092v68.142h-25.292v15.251h68.728v-15.251h-25.29zM946.688 200.609c-11.774 0-22.008-7.337-23.938-25.097 4.44-7.142 13.707-12.933 24.323-12.933 10.427 0 20.08 5.984 20.08 18.724.001 9.844-8.301 19.306-20.465 19.306m5.408-52.703c-13.32 0-23.746 4.828-29.537 11.97 2.509-18.917 13.899-33.971 36.873-33.971 4.247 0 8.88.77 11.969 1.35l2.509-14.671c-4.631-.966-11.003-1.544-15.252-1.544-33.977 0-54.054 26.058-54.054 58.104 0 26.059 13.128 46.136 40.929 46.136 26.836 0 39.576-18.529 39.576-34.556-.001-19.687-12.935-32.818-33.013-32.818" fill="#e52823"/></svg>