<svg id="Vrstva_1" data-name="Vrstva 1" xmlns="http://www.w3.org/2000/svg" xmlns:xlink="http://www.w3.org/1999/xlink" viewBox="0 0 530.36 166.92"><defs><style>.cls-1{fill:none;}.cls-2,.cls-6{fill:#004d97;}.cls-3{fill:#e2001a;}.cls-4{clip-path:url(#clip-path);}.cls-5{fill:#fff;}.cls-6{fill-rule:evenodd;}.cls-7{fill:#d9dadb;}</style><clipPath id="clip-path"><path class="cls-1" d="M79.9,118c-13.27-6.39-32.26-19.09-32.26-44.19s1.2-36.52,1.2-36.52H111s1.2,11.42,1.2,36.52-19,37.8-32.26,44.19"/></clipPath></defs><title>slovak-e</title><path class="cls-2" d="M140.55,80.73c5.7,0,9.78,3.68,9.9,9.53a9.9,9.9,0,0,1-10,10.37c-6.89-.07-9.85-5.36-9.78-10A9.85,9.85,0,0,1,140.55,80.73Zm-0.1,17.16c4.35-.07,7-3.38,6.94-7.5s-2.74-6.89-6.84-6.91c-5,0-6.86,4.32-6.84,7.18C133.64,94,135.49,97.83,140.45,97.88Z"/><path class="cls-2" d="M155.29,100.25V80.85h9.06v2.76h-6.1v5.6h4.3V92h-4.3v8.29h-3Z"/><path class="cls-2" d="M186.69,100.25h-9.06V80.85h9.06v2.76h-6.1v5.56h4.32v2.74h-4.32v5.6h6.1v2.74Z"/><path class="cls-2" d="M190.74,90.65c0-4,3-10,9.92-10a9.77,9.77,0,0,1,6.17,1.85V86a8,8,0,0,0-6.17-2.62c-5,0-6.86,4.44-6.84,7.31,0,3.13,1.83,7.18,6.84,7.18a9,9,0,0,0,6.17-2.22v3.11a9.44,9.44,0,0,1-6.17,1.85c-7,0-9.92-5.53-9.92-9.9v0Z"/><path class="cls-2" d="M220.73,80.73c5.7,0,9.78,3.68,9.9,9.53a9.9,9.9,0,0,1-10,10.37c-6.89-.07-9.85-5.36-9.78-10A9.85,9.85,0,0,1,220.73,80.73Zm-0.1,17.16c4.35-.07,7-3.38,6.94-7.5s-2.74-6.89-6.84-6.91c-5,0-6.86,4.32-6.84,7.18C213.82,94,215.67,97.83,220.63,97.88Z"/><path class="cls-2" d="M254.83,80.85v19.4h-2.4L238.56,85.81v14.44h-3V80.85H238l13.85,14.47V80.85h3Z"/><path class="cls-2" d="M269.72,80.73c5.7,0,9.78,3.68,9.9,9.53a9.9,9.9,0,0,1-10,10.37c-6.89-.07-9.85-5.36-9.78-10A9.85,9.85,0,0,1,269.72,80.73Zm-0.1,17.16c4.35-.07,7-3.38,6.94-7.5s-2.74-6.89-6.84-6.91c-5,0-6.86,4.32-6.84,7.18C262.8,94,264.65,97.83,269.62,97.88Z"/><path class="cls-2" d="M303.37,100.25V87.32l-6.69,12.94H294l-6.49-12.71v12.71h-3V80.85h3.21l7.65,15.53,7.93-15.53h3v19.4h-3Z"/><path class="cls-2" d="M319.63,100.25h-3v-7.7l-6.39-11.7h3.41l4.64,8.76,4.44-8.76h3.41L319.63,92.6v7.65Z"/><path class="cls-3" d="M79.9,118c-13.27-6.39-32.26-19.09-32.26-44.19s1.2-36.52,1.2-36.52H111s1.2,11.42,1.2,36.52-19,37.8-32.27,44.19"/><g class="cls-4"><path class="cls-5" d="M82.74,67.26c3.59,0.06,10.61.2,16.85-1.89,0,0-.16,2.24-0.16,4.84S99.59,75,99.59,75c-5.73-1.92-12.8-2-16.85-1.9V87H77.07V73.14c-4.05-.05-11.13,0-16.85,1.9,0,0,.17-2.23.17-4.84s-0.17-4.84-.17-4.84c6.24,2.09,13.26,2,16.85,1.89V58.55a39.88,39.88,0,0,0-13.33,1.91s0.16-2.24.16-4.84-0.16-4.84-.16-4.84a39.91,39.91,0,0,0,13.32,1.91,77.54,77.54,0,0,0-1.77-12.46s3.31,0.26,4.63.26,4.63-.26,4.63-0.26a77.52,77.52,0,0,0-1.77,12.46,39.92,39.92,0,0,0,13.32-1.91s-0.16,2.24-.16,4.84,0.16,4.84.16,4.84a39.87,39.87,0,0,0-13.33-1.91v8.71"/><path class="cls-6" d="M79.32,126.27L51.82,101.75S55.33,90.38,62.2,90.38a8.2,8.2,0,0,1,7.44,4.4s3.58-9.27,10.26-9.27,10.27,9.27,10.27,9.27a8.2,8.2,0,0,1,7.44-4.4c6.86,0,10.38,11.37,10.38,11.37L79.32,126.27"/></g><path class="cls-2" d="M150.42,57V44L143.73,57h-2.64L134.6,44.26V57h-3V37.57h3.21L142.5,53.1l7.93-15.53h3V57h-3Z"/><path class="cls-2" d="M163,37.57V57h-3V37.57h3Z"/><path class="cls-2" d="M188.91,37.57V57h-2.4L172.64,42.53V57h-3V37.57h2.42L185.95,52V37.57h3Z"/><path class="cls-2" d="M198.54,37.57V57h-3V37.57h3Z"/><path class="cls-2" d="M204.64,52.43A6.65,6.65,0,0,0,209,54.5a2.79,2.79,0,0,0,3.11-2.81c0-3.36-8.1-2.89-8.1-8.81a5.57,5.57,0,0,1,5.68-5.55,6.11,6.11,0,0,1,4,1.33v3.78a5.21,5.21,0,0,0-4-2.37A2.56,2.56,0,0,0,207,42.75c0,3.63,8.17,3,8.17,8.81,0,3.63-3,5.75-6.27,5.75a6.43,6.43,0,0,1-4.22-1.51V52.43Z"/><path class="cls-2" d="M216.61,37.57h15.6v2.76h-6.32V57h-3V40.33h-6.32V37.57Z"/><path class="cls-2" d="M241.1,49.57a12.7,12.7,0,0,1-1.7.12h-1V57h-3V37.57h4.07c4.47,0,7.38,1.83,7.38,6a5.46,5.46,0,0,1-2.77,4.91L251.79,57h-4.17ZM238.38,47h1.14c2.57,0,4.17-1.06,4.17-3.41s-1.56-3.23-4.1-3.23h-1.21V47Z"/><path class="cls-2" d="M260.16,57h-3v-7.7l-6.39-11.7h3.41l4.64,8.76,4.44-8.76h3.41l-6.54,11.75V57Z"/><path class="cls-2" d="M140.6,109.7c5.7,0,9.78,3.68,9.9,9.53a9.9,9.9,0,0,1-10,10.37c-6.89-.07-9.85-5.36-9.78-10A9.85,9.85,0,0,1,140.6,109.7Zm-0.1,17.16c4.35-.07,7-3.38,6.94-7.51s-2.74-6.89-6.84-6.91c-5,0-6.86,4.32-6.84,7.18C133.68,123,135.53,126.8,140.5,126.85Z"/><path class="cls-2" d="M154.84,129.22v-19.4h9.06v2.76h-6.1v5.61h4.3v2.74h-4.3v8.29h-3Z"/><path class="cls-2" d="M175.82,109.82h15.6v2.76h-6.32v16.64h-3V112.58h-6.32v-2.76Z"/><path class="cls-2" d="M208.19,109.82h3v19.4h-3V120.9h-9.85v8.32h-3v-19.4h3v8.34h9.85v-8.34Z"/><path class="cls-2" d="M226.76,129.22h-9.06v-19.4h9.06v2.76h-6.1v5.56H225v2.74h-4.32v5.6h6.1v2.74Z"/><path class="cls-2" d="M240.83,124.68a6.65,6.65,0,0,0,4.32,2.07,2.79,2.79,0,0,0,3.11-2.81c0-3.36-8.1-2.89-8.1-8.81a5.57,5.57,0,0,1,5.68-5.55,6.11,6.11,0,0,1,4,1.33v3.78a5.21,5.21,0,0,0-4-2.37,2.56,2.56,0,0,0-2.72,2.69c0,3.63,8.17,3,8.17,8.81,0,3.63-3,5.75-6.27,5.75a6.43,6.43,0,0,1-4.22-1.51v-3.38Z"/><path class="cls-2" d="M266.5,129.22H256.26v-19.4h3v16.66h7.28v2.74Z"/><path class="cls-2" d="M277.86,109.7c5.7,0,9.78,3.68,9.9,9.53a9.9,9.9,0,0,1-10,10.37c-6.89-.07-9.85-5.36-9.78-10A9.85,9.85,0,0,1,277.86,109.7Zm-0.1,17.16c4.35-.07,7-3.38,6.94-7.51s-2.74-6.89-6.84-6.91c-5,0-6.86,4.32-6.84,7.18C270.95,123,272.8,126.8,277.76,126.85Z"/><path class="cls-2" d="M298.18,125.82l5.8-16h3.18l-7.53,19.4h-3.11l-7-19.4h3.18Z"/><path class="cls-2" d="M318.22,109.82l7.18,19.4h-3.18l-2.3-6.59h-6.52l-2.32,6.59H307.9l7.43-19.4h2.89Zm-3.85,10.07H319l-2.27-6.54Z"/><path class="cls-2" d="M331.33,109.82v9.55l8.47-9.55h4l-9,9.75,8.91,9.65h-4L331.33,120v9.26h-3v-19.4h3Z"/><path class="cls-2" d="M362,121.82a12.54,12.54,0,0,1-1.7.12h-1v7.28h-3v-19.4h4.07c4.47,0,7.38,1.83,7.38,6a5.45,5.45,0,0,1-2.77,4.91l7.68,8.44h-4.17Zm-2.72-2.59h1.14c2.57,0,4.17-1.06,4.17-3.41s-1.56-3.23-4.1-3.23H359.3v6.64Z"/><path class="cls-2" d="M383.62,129.22h-9.06v-19.4h9.06v2.76h-6.1v5.56h4.32v2.74h-4.32v5.6h6.1v2.74Z"/><path class="cls-2" d="M392.58,121.94v7.28h-3v-19.4h4.07c4.47,0,7.38,1.83,7.38,6,0,3.93-3.31,6.07-7.48,6.07h-1Zm0-2.71h1.14c2.57,0,4.17-1.06,4.17-3.41s-1.56-3.23-4.1-3.23h-1.21v6.64Z"/><path class="cls-2" d="M407.49,109.82v9.28c0,4,1.8,7.8,6.27,7.8,3.7,0,6.25-2.94,6.25-7.78v-9.31h3v9.28c0,6.29-3.8,10.49-9.21,10.49-6.42,0-9.23-4.37-9.23-10.47v-9.31h3Z"/><path class="cls-2" d="M428.41,129.22v-19.4h2.76c4.34,0,7.65,1.36,7.65,5.28a3.49,3.49,0,0,1-2.84,3.58c2.79,0.52,4.64,2,4.64,4.86,0,4.77-4.57,5.68-8.54,5.68h-3.68Zm3.78-11.38c2.3,0,3.63-.79,3.63-2.59,0-2.2-2.17-2.69-4-2.69h-0.42v5.28h0.82Zm0.37,2.74h-1.19v5.9h1.09c3.09,0,5.09-.39,5.09-2.89S435.42,120.58,432.55,120.58Z"/><path class="cls-2" d="M455.56,129.22H445.32v-19.4h3v16.66h7.28v2.74Z"/><path class="cls-2" d="M461.91,109.82v19.4h-3v-19.4h3Z"/><path class="cls-2" d="M466.62,119.62c0-4,3-10,9.92-10a9.77,9.77,0,0,1,6.17,1.85v3.51a8,8,0,0,0-6.17-2.62c-5,0-6.86,4.45-6.84,7.31,0,3.13,1.83,7.18,6.84,7.18a9,9,0,0,0,6.17-2.22v3.11a9.44,9.44,0,0,1-6.17,1.85c-7,0-9.92-5.53-9.92-9.9v0Z"/><path class="cls-7" d="M176.1,68.68H131.6v-3h44.5v3Z"/><path class="cls-2" d="M220.59,68.68h-44.5v-3h44.5v3Z"/><path class="cls-3" d="M265.07,68.68h-44.5v-3h44.5v3Z"/></svg>